<?xml version="1.0" encoding="UTF-8" standalone="no"?>
<!-- Created with Inkscape (http://www.inkscape.org/) -->

<svg
   version="1.1"
   id="svg2"
   width="521.87079"
   height="343.07019"
   viewBox="0 0 521.87079 343.07019"
   xmlns="http://www.w3.org/2000/svg"
   xmlns:svg="http://www.w3.org/2000/svg">
  <defs
     id="defs6">
    <clipPath
       clipPathUnits="userSpaceOnUse"
       id="clipPath20">
      <path
         d="M 30.853235,70.082729 H 365.65324 V 227.72673 H 30.853235 Z"
         id="path18" />
    </clipPath>
    <clipPath
       clipPathUnits="userSpaceOnUse"
       id="clipPath30">
      <path
         d="M 30.853235,70.082729 H 365.65324 V 227.72673 H 30.853235 Z"
         id="path28" />
    </clipPath>
    <clipPath
       clipPathUnits="userSpaceOnUse"
       id="clipPath66">
      <path
         d="M 30.853235,70.082729 H 365.65324 V 227.72673 H 30.853235 Z"
         id="path64" />
    </clipPath>
    <clipPath
       clipPathUnits="userSpaceOnUse"
       id="clipPath76">
      <path
         d="M 30.853235,70.082729 H 365.65324 V 227.72673 H 30.853235 Z"
         id="path74" />
    </clipPath>
    <clipPath
       clipPathUnits="userSpaceOnUse"
       id="clipPath86">
      <path
         d="M 30.853235,70.082729 H 365.65324 V 227.72673 H 30.853235 Z"
         id="path84" />
    </clipPath>
    <clipPath
       clipPathUnits="userSpaceOnUse"
       id="clipPath132">
      <path
         d="m 12.277235,221.46273 h 38.88 v 25.056 h -38.88 z"
         id="path130" />
    </clipPath>
    <clipPath
       clipPathUnits="userSpaceOnUse"
       id="clipPath142">
      <path
         d="m 12.277235,221.46273 h 38.88 v 25.056 h -38.88 z"
         id="path140" />
    </clipPath>
    <clipPath
       clipPathUnits="userSpaceOnUse"
       id="clipPath152">
      <path
         d="m 12.277235,221.46273 h 38.88 v 25.056 h -38.88 z"
         id="path150" />
    </clipPath>
    <clipPath
       clipPathUnits="userSpaceOnUse"
       id="clipPath162">
      <path
         d="m 12.277235,221.46273 h 38.88 v 25.056 h -38.88 z"
         id="path160" />
    </clipPath>
    <clipPath
       clipPathUnits="userSpaceOnUse"
       id="clipPath180">
      <path
         d="m 330.22924,221.46273 h 38.88 v 25.056 h -38.88 z"
         id="path178" />
    </clipPath>
    <clipPath
       clipPathUnits="userSpaceOnUse"
       id="clipPath190">
      <path
         d="m 330.22924,221.46273 h 38.88 v 25.056 h -38.88 z"
         id="path188" />
    </clipPath>
    <clipPath
       clipPathUnits="userSpaceOnUse"
       id="clipPath200">
      <path
         d="m 330.22924,221.46273 h 38.88 v 25.056 h -38.88 z"
         id="path198" />
    </clipPath>
    <clipPath
       clipPathUnits="userSpaceOnUse"
       id="clipPath210">
      <path
         d="m 330.22924,221.46273 h 38.88 v 25.056 h -38.88 z"
         id="path208" />
    </clipPath>
  </defs>
  <g
     id="g8"
     transform="matrix(1.3333333,0,0,-1.3333333,0,343.0702)">
    <path
       d="M 0,0 H 391.40308 V 257.30265 H 0 Z"
       style="fill:#ffffff;fill-opacity:1;fill-rule:nonzero;stroke:none"
       id="path10" />
    <path
       d="M 30.853235,70.082729 H 365.65323 V 227.72673 H 30.853235 Z"
       style="fill:#ffffff;fill-opacity:1;fill-rule:nonzero;stroke:none"
       id="path12" />
    <g
       id="g14">
      <g
         id="g16"
         clip-path="url(#clipPath20)">
        <path
           d="m 41.2,70.082729 v 25.184412 l 3.121243,0.0095 3.121243,0.01018 3.121244,0.01088 3.121243,0.01163 3.121243,0.01244 3.121243,0.01329 3.121244,0.01421 3.121243,0.01519 3.121243,0.01624 3.121243,0.01736 3.121244,0.01855 3.121243,0.01983 3.121243,0.0212 3.121243,0.02266 3.121244,0.02422 3.121243,0.02589 3.121243,0.02768 3.121243,0.02959 3.121242,0.03163 3.12125,0.03381 3.12124,0.03614 3.12124,0.03863 3.12125,0.04129 3.12124,0.04414 3.12124,0.04718 3.12124,0.05043 3.12125,0.05391 3.12124,0.05763 3.12124,0.0616 3.12125,0.06585 3.12124,0.07039 3.12124,0.07524 3.12125,0.08042 3.12124,0.08597 3.12124,0.0919 3.12125,0.09823 3.12124,0.105004 3.12124,0.112243 3.12125,0.119981 3.12124,0.128253 3.12124,0.137094 3.12125,0.146546 3.12124,0.156649 3.12124,0.167448 3.12125,0.178992 3.12124,0.191331 3.12124,0.204522 3.12125,0.218622 3.12124,0.233694 3.12124,0.249805 3.12125,0.267026 3.12124,0.285435 3.12124,0.305113 3.12124,0.326151 3.12125,0.34863 3.12124,0.37267 3.12124,0.39836 3.12125,0.42582 3.12124,0.45517 3.12124,0.48656 3.12125,0.5201 3.12124,0.55596 3.12124,0.59429 3.12125,0.63525 3.12124,0.67905 3.12124,0.72586 3.12125,0.77591 3.12124,0.8294 3.12124,0.88657 3.12125,0.94769 3.12124,1.01303 3.12124,1.08287 3.12125,1.15752 3.12124,1.23732 3.12124,1.32263 3.12125,1.4138 3.12124,1.51127 3.12124,1.61546 3.12125,1.72683 3.12124,1.84587 3.12124,1.97314 3.12125,2.10915 3.12124,2.25457 3.12124,2.41 3.12125,2.57614 3.12124,2.75374 3.12124,2.94358 3.12125,3.14652 3.12124,3.36343 3.12124,3.59532 3.12124,3.84317 3.12125,4.10813 3.12124,4.39133 3.12124,4.69408 3.12125,5.01769 3.12124,5.36361 3.12124,5.73338 3.12125,6.12864 3.12124,6.55114 v -126.623921 0 h -3.12124 -3.12125 -3.12124 -3.12124 -3.12125 -3.12124 -3.12124 -3.12125 -3.12124 -3.12124 -3.12124 -3.12125 -3.12124 -3.12124 -3.12125 -3.12124 -3.12124 -3.12125 -3.12124 -3.12124 -3.12125 -3.12124 -3.12124 -3.12125 -3.12124 -3.12124 -3.12125 -3.12124 -3.12124 -3.12125 -3.12124 -3.12124 -3.12125 -3.12124 -3.12124 -3.12125 -3.12124 -3.12124 -3.12125 -3.12124 -3.12124 -3.12125 -3.12124 -3.12124 -3.12125 -3.12124 -3.12124 -3.12124 -3.12125 -3.12124 -3.12124 -3.12125 -3.12124 -3.12124 -3.12125 -3.12124 -3.12124 -3.12125 -3.12124 -3.12124 -3.12125 -3.12124 -3.12124 -3.12125 -3.12124 -3.12124 -3.12125 -3.12124 -3.12124 -3.12125 -3.12124 -3.12124 -3.12125 -3.12124 -3.12124 -3.12124 -3.12125 -3.12124 -3.12124 -3.12125 H 97.382378 94.261135 91.139892 88.018649 84.897405 81.776162 78.654919 75.533676 72.412432 69.291189 66.169946 63.048703 59.927459 56.806216 53.684973 50.56373 47.442486 44.321243 41.2 Z"
           style="fill:#ffbb78;fill-opacity:0.5;fill-rule:nonzero;stroke:none"
           id="path22" />
      </g>
    </g>
    <g
       id="g24">
      <g
         id="g26"
         clip-path="url(#clipPath30)">
        <path
           d="M 41.2,70.082729 V 187.03107 l 3.121243,-5.92713 3.121243,-5.54487 3.121244,-5.18725 3.121243,-4.85271 3.121243,-4.53974 3.121243,-4.24696 3.121244,-3.97305 3.121243,-3.71681 3.121243,-3.4771 3.121243,-3.25285 3.121244,-3.04306 3.121243,-2.84679 3.121243,-2.6632 3.121243,-2.49144 3.121244,-2.33076 3.121243,-2.18043 3.121243,-2.03982 3.121243,-1.90825 3.121242,-1.78519 3.12125,-1.67005 3.12124,-1.56234 3.12124,-1.46158 3.12125,-1.36732 3.12124,-1.27914 3.12124,-1.19663 3.12124,-1.11946 3.12125,-1.04727 3.12124,-0.97972 3.12124,-0.91653 3.12125,-0.85743 3.12124,-0.80212 3.12124,-0.7504 3.12125,-0.70199 3.12124,-0.65673 3.12124,-0.61437 3.12125,-0.57474 3.12124,-0.53768 3.12124,-0.503 3.12125,-0.47056 3.12124,-0.44021 3.12124,-0.41182 3.12125,-0.38526 3.12124,-0.36042 3.12124,-0.33717 3.12125,-0.31542 3.12124,-0.295081 3.12124,-0.276051 3.12125,-0.258246 3.12124,-0.241591 3.12124,-0.22601 3.12125,-0.211434 3.12124,-0.197797 3.12124,-0.185041 3.12124,-0.173107 3.12125,-0.161942 3.12124,-0.151499 3.12124,-0.141727 3.12125,-0.132587 3.12124,-0.124036 3.12124,-0.116036 3.12125,-0.108552 3.12124,-0.101552 3.12124,-0.095 3.12125,-0.08888 3.12124,-0.08314 3.12124,-0.07778 3.12125,-0.07277 3.12124,-0.06807 3.12124,-0.06368 3.12125,-0.05957 3.12124,-0.05573 3.12124,-0.05214 3.12125,-0.04878 3.12124,-0.04563 3.12124,-0.04269 3.12125,-0.03993 3.12124,-0.03736 3.12124,-0.03495 3.12125,-0.03269 3.12124,-0.03059 3.12124,-0.02861 3.12125,-0.02677 3.12124,-0.02504 3.12124,-0.02343 3.12125,-0.02192 3.12124,-0.0205 3.12124,-0.01918 3.12125,-0.01794 3.12124,-0.01679 3.12124,-0.0157 3.12124,-0.01469 3.12125,-0.01374 3.12124,-0.01286 3.12124,-0.01203 3.12125,-0.01125 3.12124,-0.01053 3.12124,-0.0098 3.12125,-0.0092 3.12124,-0.0086 V 70.0828 v 0 h -3.12124 -3.12125 -3.12124 -3.12124 -3.12125 -3.12124 -3.12124 -3.12125 -3.12124 -3.12124 -3.12124 -3.12125 -3.12124 -3.12124 -3.12125 -3.12124 -3.12124 -3.12125 -3.12124 -3.12124 -3.12125 -3.12124 -3.12124 -3.12125 -3.12124 -3.12124 -3.12125 -3.12124 -3.12124 -3.12125 -3.12124 -3.12124 -3.12125 -3.12124 -3.12124 -3.12125 -3.12124 -3.12124 -3.12125 -3.12124 -3.12124 -3.12125 -3.12124 -3.12124 -3.12125 -3.12124 -3.12124 -3.12124 -3.12125 -3.12124 -3.12124 -3.12125 -3.12124 -3.12124 -3.12125 -3.12124 -3.12124 -3.12125 -3.12124 -3.12124 -3.12125 -3.12124 -3.12124 -3.12125 -3.12124 -3.12124 -3.12125 -3.12124 -3.12124 -3.12125 -3.12124 -3.12124 -3.12125 -3.12124 -3.12124 -3.12124 -3.12125 -3.12124 -3.12124 -3.12125 H 97.382378 94.261135 91.139892 88.018649 84.897405 81.776162 78.654919 75.533676 72.412432 69.291189 66.169946 63.048703 59.927459 56.806216 53.684973 50.56373 47.442486 44.321243 41.2 Z"
           style="fill:#aec7e8;fill-opacity:0.5;fill-rule:nonzero;stroke:none"
           id="path32" />
      </g>
    </g>
    <g
       id="g34">
      <text
         xml:space="preserve"
         transform="matrix(1,0,0,-1,30.73732,50.629428)"
         style="font-variant:normal;font-weight:normal;font-size:17.9328px;font-family:CMR17;-inkscape-font-specification:CMR17;writing-mode:lr-tb;fill:#000000;fill-opacity:1;fill-rule:nonzero;stroke:none"
         id="text38"><tspan
           x="0 8.2132006 12.678455"
           y="0"
           id="tspan36">0.0</tspan></text>
      <text
         xml:space="preserve"
         transform="matrix(1,0,0,-1,339.7404,50.629428)"
         style="font-variant:normal;font-weight:normal;font-size:17.9328px;font-family:CMR17;-inkscape-font-specification:CMR17;writing-mode:lr-tb;fill:#000000;fill-opacity:1;fill-rule:nonzero;stroke:none"
         id="text42"><tspan
           x="0 8.2132006 12.678455"
           y="0"
           id="tspan40">1.0</tspan></text>
      <text
         xml:space="preserve"
         transform="matrix(1,0,0,-1,27.872084,10.688064)"
         style="font-variant:normal;font-weight:normal;font-size:17.9328px;font-family:CMR17;-inkscape-font-specification:CMR17;writing-mode:lr-tb;fill:#000000;fill-opacity:1;fill-rule:nonzero;stroke:none"
         id="text46"><tspan
           x="0 11.72802 19.941221 24.406475 32.619675 41.765381 49.046078 53.511333 62.657036 76.283913 87.077232 95.290436 101.63863 109.85183 123.69592 130.97661 137.32481 144.6055"
           y="0"
           id="tspan44">BalancingParameter</tspan></text>
      <text
         xml:space="preserve"
         transform="matrix(1,0,0,-1,184.38716,10.688064)"
         style="font-style:italic;font-variant:normal;font-weight:normal;font-size:17.9328px;font-family:CMMI12;-inkscape-font-specification:CMMI12;writing-mode:lr-tb;fill:#000000;fill-opacity:1;fill-rule:nonzero;stroke:none"
         id="text50"><tspan
           x="0"
           y="0"
           id="tspan48">θ</tspan></text>
      <text
         xml:space="preserve"
         transform="matrix(1,0,0,-1,198.47134,10.688064)"
         style="font-variant:normal;font-weight:normal;font-size:17.9328px;font-family:CMR17;-inkscape-font-specification:CMR17;writing-mode:lr-tb;fill:#000000;fill-opacity:1;fill-rule:nonzero;stroke:none"
         id="text54"><tspan
           x="0 8.2132006 18.558382 24.906576 34.05228 46.746651 57.302483 64.583183 71.021034 82.782906 95.443428 99.908684 106.34654 112.69474 119.04293 123.50819 132.65388 141.79959 148.14778 152.61304 160.82625"
           y="0"
           id="tspan52">oftheTestDistribution</tspan></text>
      <text
         xml:space="preserve"
         transform="matrix(0,1,1,0,23.365171,115.54274)"
         style="font-variant:normal;font-weight:normal;font-size:17.9328px;font-family:CMR17;-inkscape-font-specification:CMR17;writing-mode:lr-tb;fill:#000000;fill-opacity:1;fill-rule:nonzero;stroke:none"
         id="text58"><tspan
           x="0 12.427398 19.708096 26.988792 36.134495 42.482689 50.695889 57.976589"
           y="0"
           id="tspan56">Accuracy</tspan></text>
    </g>
    <g
       id="g60">
      <g
         id="g62"
         clip-path="url(#clipPath66)">
        <path
           d="m 41.2,95.267141 3.121243,0.0095 3.121243,0.01018 3.121244,0.01088 3.121243,0.01163 3.121243,0.01244 3.121243,0.01329 3.121244,0.01421 3.121243,0.01519 3.121243,0.01624 3.121243,0.01736 3.121244,0.01855 3.121243,0.01983 3.121243,0.0212 3.121243,0.02266 3.121244,0.02422 3.121243,0.02589 3.121243,0.02768 3.121243,0.02959 3.121242,0.03163 3.12125,0.03381 3.12124,0.03614 3.12124,0.03863 3.12125,0.04129 3.12124,0.04414 3.12124,0.04718 3.12124,0.05043 3.12125,0.05391 3.12124,0.05763 3.12124,0.0616 3.12125,0.06585 3.12124,0.07039 3.12124,0.07524 3.12125,0.08042 3.12124,0.08597 3.12124,0.0919 3.12125,0.09823 3.12124,0.105004 3.12124,0.112243 3.12125,0.119981 3.12124,0.128253 3.12124,0.137094 3.12125,0.146546 3.12124,0.156649 3.12124,0.167448 3.12125,0.178992 3.12124,0.191331 3.12124,0.204522 3.12125,0.218622 3.12124,0.233694 3.12124,0.249805 3.12125,0.267026 3.12124,0.285435 3.12124,0.305113 3.12124,0.326151 3.12125,0.34863 3.12124,0.37267 3.12124,0.39836 3.12125,0.42582 3.12124,0.45517 3.12124,0.48656 3.12125,0.5201 3.12124,0.55596 3.12124,0.59429 3.12125,0.63525 3.12124,0.67905 3.12124,0.72586 3.12125,0.77591 3.12124,0.8294 3.12124,0.88657 3.12125,0.94769 3.12124,1.01303 3.12124,1.08287 3.12125,1.15752 3.12124,1.23732 3.12124,1.32263 3.12125,1.4138 3.12124,1.51127 3.12124,1.61546 3.12125,1.72683 3.12124,1.84587 3.12124,1.97314 3.12125,2.10915 3.12124,2.25457 3.12124,2.41 3.12125,2.57614 3.12124,2.75374 3.12124,2.94358 3.12125,3.14652 3.12124,3.36343 3.12124,3.59532 3.12124,3.84317 3.12125,4.10813 3.12124,4.39133 3.12124,4.69408 3.12125,5.01769 3.12124,5.36361 3.12124,5.73338 3.12125,6.12864 3.12124,6.55114"
           style="fill:none;stroke:#ff7f0e;stroke-width:3.2;stroke-linecap:butt;stroke-linejoin:round;stroke-miterlimit:10;stroke-dasharray:3.2, 5.28;stroke-dashoffset:0;stroke-opacity:1"
           id="path68" />
      </g>
    </g>
    <g
       id="g70">
      <g
         id="g72"
         clip-path="url(#clipPath76)">
        <path
           d="m 41.2,187.03107 3.121243,-5.92713 3.121243,-5.54487 3.121244,-5.18725 3.121243,-4.85271 3.121243,-4.53974 3.121243,-4.24696 3.121244,-3.97305 3.121243,-3.71681 3.121243,-3.4771 3.121243,-3.25285 3.121244,-3.04306 3.121243,-2.84679 3.121243,-2.6632 3.121243,-2.49144 3.121244,-2.33076 3.121243,-2.18043 3.121243,-2.03982 3.121243,-1.90825 3.121242,-1.78519 3.12125,-1.67005 3.12124,-1.56234 3.12124,-1.46158 3.12125,-1.36732 3.12124,-1.27914 3.12124,-1.19663 3.12124,-1.11946 3.12125,-1.04727 3.12124,-0.97972 3.12124,-0.91653 3.12125,-0.85743 3.12124,-0.80212 3.12124,-0.7504 3.12125,-0.70199 3.12124,-0.65673 3.12124,-0.61437 3.12125,-0.57474 3.12124,-0.53768 3.12124,-0.503 3.12125,-0.47056 3.12124,-0.44021 3.12124,-0.41182 3.12125,-0.38526 3.12124,-0.36042 3.12124,-0.33717 3.12125,-0.31542 3.12124,-0.295081 3.12124,-0.276051 3.12125,-0.258246 3.12124,-0.241591 3.12124,-0.22601 3.12125,-0.211434 3.12124,-0.197797 3.12124,-0.185041 3.12124,-0.173107 3.12125,-0.161942 3.12124,-0.151499 3.12124,-0.141727 3.12125,-0.132587 3.12124,-0.124036 3.12124,-0.116036 3.12125,-0.108552 3.12124,-0.101552 3.12124,-0.095 3.12125,-0.08888 3.12124,-0.08314 3.12124,-0.07778 3.12125,-0.07277 3.12124,-0.06807 3.12124,-0.06368 3.12125,-0.05957 3.12124,-0.05573 3.12124,-0.05214 3.12125,-0.04878 3.12124,-0.04563 3.12124,-0.04269 3.12125,-0.03993 3.12124,-0.03736 3.12124,-0.03495 3.12125,-0.03269 3.12124,-0.03059 3.12124,-0.02861 3.12125,-0.02677 3.12124,-0.02504 3.12124,-0.02343 3.12125,-0.02192 3.12124,-0.0205 3.12124,-0.01918 3.12125,-0.01794 3.12124,-0.01679 3.12124,-0.0157 3.12124,-0.01469 3.12125,-0.01374 3.12124,-0.01286 3.12124,-0.01203 3.12125,-0.01125 3.12124,-0.01053 3.12124,-0.0098 3.12125,-0.0092 3.12124,-0.0086"
           style="fill:none;stroke:#1f77b4;stroke-width:3.2;stroke-linecap:butt;stroke-linejoin:round;stroke-miterlimit:10;stroke-dasharray:11.84, 5.12;stroke-dashoffset:0;stroke-opacity:1"
           id="path78" />
      </g>
    </g>
    <g
       id="g80">
      <g
         id="g82"
         clip-path="url(#clipPath86)">
        <path
           d="m 41.2,191.53947 3.121243,-3.36886 3.121243,-3.29904 3.121244,-3.22921 3.121243,-3.1594 3.121243,-3.08957 3.121243,-3.01975 3.121244,-2.94993 3.121243,-2.88011 3.121243,-2.81028 3.121243,-2.74046 3.121244,-2.67064 3.121243,-2.60082 3.121243,-2.531 3.121243,-2.46117 3.121244,-2.39136 3.121243,-2.32153 3.121243,-2.2517 3.121243,-2.18189 3.121242,-2.11207 3.12125,-2.04224 3.12124,-1.97242 3.12124,-1.9026 3.12125,-1.83277 3.12124,-1.76296 3.12124,-1.69313 3.12124,-1.62331 3.12125,-1.55349 3.12124,-1.48366 3.12124,-1.41385 3.12125,-1.34402 3.12124,-1.2742 3.12124,-1.20438 3.12125,-1.13455 3.12124,-1.06474 3.12124,-0.99491 3.12125,-0.92509 3.12124,-0.85527 3.12124,-0.78545 3.12125,-0.71562 3.12124,-0.6458 3.12124,-0.57598 3.12125,-0.50616 3.12124,-0.43634 3.12124,-0.36651 3.12125,-0.29669 3.12124,-0.22687 3.12124,-0.15705 3.12125,-0.0872 3.12124,-0.0174 3.12124,0.0524 3.12125,0.12224 3.12124,0.19206 3.12124,0.26188 3.12124,0.33171 3.12125,0.40153 3.12124,0.47135 3.12124,0.54117 3.12125,0.611 3.12124,0.68081 3.12124,0.75064 3.12125,0.82046 3.12124,0.89028 3.12124,0.96011 3.12125,1.02992 3.12124,1.09975 3.12124,1.16957 3.12125,1.23939 3.12124,1.30922 3.12124,1.37904 3.12125,1.44885 3.12124,1.51868 3.12124,1.58851 3.12125,1.65832 3.12124,1.72815 3.12124,1.79797 3.12125,1.86779 3.12124,1.93761 3.12124,2.00743 3.12125,2.07726 3.12124,2.14708 3.12124,2.2169 3.12125,2.28672 3.12124,2.35655 3.12124,2.42636 3.12125,2.49619 3.12124,2.56601 3.12124,2.63583 3.12125,2.70566 3.12124,2.77548 3.12124,2.84529 3.12124,2.91513 3.12125,2.98494 3.12124,3.05476 3.12124,3.12459 3.12125,3.19441 3.12124,3.26423 3.12124,3.33405 3.12125,3.40388 3.12124,3.47369"
           style="fill:none;stroke:#2ca02c;stroke-width:3.2;stroke-linecap:square;stroke-linejoin:round;stroke-miterlimit:10;stroke-dasharray:none;stroke-opacity:1"
           id="path88" />
      </g>
    </g>
    <g
       id="g90">
      <text
         xml:space="preserve"
         transform="matrix(1,0,0,-1,7.2,35.049309)"
         style="font-variant:normal;font-weight:normal;font-size:17.9328px;font-family:CMR17;-inkscape-font-specification:CMR17;writing-mode:lr-tb;fill:#000000;fill-opacity:1;fill-rule:nonzero;stroke:none"
         id="text94"><tspan
           x="0 6.3481941 19.241842 25.590038 30.055292 38.268494 50.021164 62.681686 67.146942 73.584801 79.932991 84.398247"
           y="0"
           id="tspan92">(Orig.Dist.)</tspan></text>
      <text
         xml:space="preserve"
         transform="matrix(1,0,0,-1,265.78839,35.049309)"
         style="font-variant:normal;font-weight:normal;font-size:17.9328px;font-family:CMR17;-inkscape-font-specification:CMR17;writing-mode:lr-tb;fill:#000000;fill-opacity:1;fill-rule:nonzero;stroke:none"
         id="text98"><tspan
           x="0 6.3481941 18.775591 27.452852 36.598557 41.063812 49.277012 55.71487 62.995567 77.554947 90.215469 94.680725 101.11858 107.46677 111.93203"
           y="0"
           id="tspan96">(UnbiasedDist.)</tspan></text>
      <path
         d="m 365.65323,70.082729 -12.87692,-2.748287 v 2.674621 H 30.853235 v 0.147331 H 352.77631 v 2.674621 z"
         style="fill:#000000;fill-opacity:1;fill-rule:nonzero;stroke:#000000;stroke-width:2;stroke-linecap:butt;stroke-linejoin:miter;stroke-miterlimit:10;stroke-dasharray:none;stroke-opacity:1"
         id="path100" />
      <path
         d="m 30.853235,212.99364 3.031616,-11.67347 H 30.883667 V 70.082729 h -0.06086 V 201.32017 h -3.001184 l 3.031615,11.67347 z"
         style="fill:#000000;fill-opacity:1;fill-rule:nonzero;stroke:#000000;stroke-width:2;stroke-linecap:butt;stroke-linejoin:miter;stroke-miterlimit:10;stroke-dasharray:none;stroke-opacity:1"
         id="path102" />
      <path
         d="m 139.51925,195.09829 h 117.46797 c 1.6,0 2.4,0.8 2.4,2.4 v 50.20436 c 0,1.6 -0.8,2.4 -2.4,2.4 H 139.51925 c -1.6,0 -2.4,-0.8 -2.4,-2.4 v -50.20436 c 0,-1.6 0.8,-2.4 2.4,-2.4 z"
         style="fill:#ffffff;fill-opacity:0.8;fill-rule:nonzero;stroke:#cccccc;stroke-width:1;stroke-linecap:butt;stroke-linejoin:miter;stroke-miterlimit:10;stroke-dasharray:none;stroke-opacity:0.8"
         id="path104" />
      <path
         d="m 141.91925,241.10265 h 24"
         style="fill:none;stroke:#1f77b4;stroke-width:3.2;stroke-linecap:butt;stroke-linejoin:round;stroke-miterlimit:10;stroke-dasharray:11.84, 5.12;stroke-dashoffset:0;stroke-opacity:1"
         id="path106" />
      <text
         xml:space="preserve"
         transform="matrix(1,0,0,-1,175.51925,236.90265)"
         style="font-variant:normal;font-weight:normal;font-size:11.9552px;font-family:CMR12;-inkscape-font-specification:CMR12;writing-mode:lr-tb;fill:#000000;fill-opacity:1;fill-rule:nonzero;stroke:none"
         id="text110"><tspan
           x="0 7.962142 16.569862 31.195642 41.91943 48.090672 54.582329 59.782825"
           y="0"
           id="tspan108">ERMModel</tspan></text>
      <path
         d="m 141.91925,224.37805 h 24"
         style="fill:none;stroke:#ff7f0e;stroke-width:3.2;stroke-linecap:butt;stroke-linejoin:round;stroke-miterlimit:10;stroke-dasharray:3.2, 5.28;stroke-dashoffset:0;stroke-opacity:1"
         id="path112" />
      <text
         xml:space="preserve"
         transform="matrix(1,0,0,-1,175.51925,220.17805)"
         style="font-variant:normal;font-weight:normal;font-size:11.9552px;font-family:CMR12;-inkscape-font-specification:CMR12;writing-mode:lr-tb;fill:#000000;fill-opacity:1;fill-rule:nonzero;stroke:none"
         id="text116"><tspan
           x="0 8.9305105 16.557907 29.067623 39.791409 45.96265 52.454308 57.654804"
           y="0"
           id="tspan114">DFRModel</tspan></text>
      <path
         d="m 141.91925,207.08708 h 24"
         style="fill:none;stroke:#2ca02c;stroke-width:3.2;stroke-linecap:square;stroke-linejoin:round;stroke-miterlimit:10;stroke-dasharray:none;stroke-opacity:1"
         id="path118" />
      <text
         xml:space="preserve"
         transform="matrix(1,0,0,-1,175.51925,202.88708)"
         style="font-variant:normal;font-weight:normal;font-size:11.9552px;font-family:CMR12;-inkscape-font-specification:CMR12;writing-mode:lr-tb;fill:#000000;fill-opacity:1;fill-rule:nonzero;stroke:none"
         id="text122"><tspan
           x="0 8.7750931 19.498878 25.990536 33.952679 45.159279 49.702244 58.800125 65.291779 69.834747 74.44944"
           y="0"
           id="tspan120">AMSEL(Ours)</tspan></text>
      <path
         d="m 12.277235,221.46273 h 38.88 v 25.056 h -38.88 z"
         style="fill:#ffffff;fill-opacity:1;fill-rule:nonzero;stroke:none"
         id="path124" />
    </g>
    <g
       id="g126">
      <g
         id="g128"
         clip-path="url(#clipPath132)">
        <path
           d="m 14.044508,221.46273 h 7.441148 v 23.86286 h -7.441148 z"
           style="fill:#000000;fill-opacity:1;fill-rule:nonzero;stroke:none"
           id="path134" />
      </g>
    </g>
    <g
       id="g136">
      <g
         id="g138"
         clip-path="url(#clipPath142)">
        <path
           d="m 23.345944,221.46273 h 7.441148 v 6.81796 h -7.441148 z"
           style="fill:#000000;fill-opacity:1;fill-rule:nonzero;stroke:none"
           id="path144" />
      </g>
    </g>
    <g
       id="g146">
      <g
         id="g148"
         clip-path="url(#clipPath152)">
        <path
           d="m 32.647379,221.46273 h 7.441148 v 20.45388 h -7.441148 z"
           style="fill:#000000;fill-opacity:1;fill-rule:nonzero;stroke:none"
           id="path154" />
      </g>
    </g>
    <g
       id="g156">
      <g
         id="g158"
         clip-path="url(#clipPath162)">
        <path
           d="m 41.948814,221.46273 h 7.441149 v 10.22694 h -7.441149 z"
           style="fill:#000000;fill-opacity:1;fill-rule:nonzero;stroke:none"
           id="path164" />
      </g>
    </g>
    <g
       id="g166">
      <path
         d="m 53.110537,221.46273 -0.511579,-0.51135 v 0.50964 H 12.184221 v 0.003 h 40.414737 v 0.50965 l 0.511579,-0.51135 z"
         style="fill:#000000;fill-opacity:1;fill-rule:nonzero;stroke:#000000;stroke-width:2;stroke-linecap:butt;stroke-linejoin:miter;stroke-miterlimit:10;stroke-dasharray:none;stroke-opacity:1"
         id="path168" />
      <path
         d="m 12.184221,248.05277 0.507207,-0.51576 h -0.502556 v -26.07428 h -0.0093 v 26.07428 h -0.502555 l 0.507206,0.51576 z"
         style="fill:#000000;fill-opacity:1;fill-rule:nonzero;stroke:#000000;stroke-width:2;stroke-linecap:butt;stroke-linejoin:miter;stroke-miterlimit:10;stroke-dasharray:none;stroke-opacity:1"
         id="path170" />
      <path
         d="m 330.22923,221.46273 h 38.88 v 25.056 h -38.88 z"
         style="fill:#ffffff;fill-opacity:1;fill-rule:nonzero;stroke:none"
         id="path172" />
    </g>
    <g
       id="g174">
      <g
         id="g176"
         clip-path="url(#clipPath180)">
        <path
           d="m 331.99651,221.46273 h 7.44115 v 15.34041 h -7.44115 z"
           style="fill:#000000;fill-opacity:1;fill-rule:nonzero;stroke:none"
           id="path182" />
      </g>
    </g>
    <g
       id="g184">
      <g
         id="g186"
         clip-path="url(#clipPath190)">
        <path
           d="m 341.29794,221.46273 h 7.44115 v 15.34041 h -7.44115 z"
           style="fill:#000000;fill-opacity:1;fill-rule:nonzero;stroke:none"
           id="path192" />
      </g>
    </g>
    <g
       id="g194">
      <g
         id="g196"
         clip-path="url(#clipPath200)">
        <path
           d="m 350.59938,221.46273 h 7.44115 v 15.34041 h -7.44115 z"
           style="fill:#000000;fill-opacity:1;fill-rule:nonzero;stroke:none"
           id="path202" />
      </g>
    </g>
    <g
       id="g204">
      <g
         id="g206"
         clip-path="url(#clipPath210)">
        <path
           d="m 359.90081,221.46273 h 7.44115 v 15.34041 h -7.44115 z"
           style="fill:#000000;fill-opacity:1;fill-rule:nonzero;stroke:none"
           id="path212" />
      </g>
    </g>
    <g
       id="g214">
      <path
         d="m 371.06254,221.46273 -0.51158,-0.51135 v 0.50964 h -40.41474 v 0.003 h 40.41474 v 0.50965 l 0.51158,-0.51135 z"
         style="fill:#000000;fill-opacity:1;fill-rule:nonzero;stroke:#000000;stroke-width:2;stroke-linecap:butt;stroke-linejoin:miter;stroke-miterlimit:10;stroke-dasharray:none;stroke-opacity:1"
         id="path216" />
      <path
         d="m 330.13622,248.05277 0.50721,-0.51576 h -0.50256 v -26.07428 h -0.009 v 26.07428 h -0.50256 l 0.50721,0.51576 z"
         style="fill:#000000;fill-opacity:1;fill-rule:nonzero;stroke:#000000;stroke-width:2;stroke-linecap:butt;stroke-linejoin:miter;stroke-miterlimit:10;stroke-dasharray:none;stroke-opacity:1"
         id="path218" />
    </g>
  </g>
</svg>
